<svg height="311pt" preserveAspectRatio="xMidYMid meet" viewBox="0 0 680 311" width="680pt" xmlns="http://www.w3.org/2000/svg"><g transform="matrix(.1 0 0 -.1 0 311)"><path d="m1 2905c0-113 4-205 8-205s11 3 15 8c4 4 20 7 35 7h28l-13-43c-7-23-9-40-4-37 6 4 10 2 10-4 0-10 39-27 53-23 15 4 47-19 47-34 0-8 5-12 10-9 6 4 8-3 6-17-3-13-5-37-5-54-1-21-12-43-31-64-16-18-27-37-23-43 4-7 0-8-13-3-10 4-15 4-11 0s0-18-8-31c-9-14-11-23-5-23s8-5 4-11c-3-6-20-9-36-7-35 6-48-10-23-29 18-12 17-15-13-46-31-32-32-36-32-114 0-62 3-82 15-86 8-4 17-2 20 3 4 6 1 10-6 10-10 0-10 3-1 12 7 7 12 20 12 29 0 25 39 50 67 43 32-8 70 27 85 80 22 73 66 131 86 111 3-3 0-5-7-5-8 0-8-8 3-28 12-23 12-30 0-47-11-15-11-20-1-27 8-5 6-8-7-8-15 0-17-5-13-30 4-16 2-32-3-35-6-3-10-16-10-28 0-20 0-20 15-1 8 10 15 15 15 9 0-5-14-23-32-38-18-16-26-25-18-21s-10-17-41-47c-30-31-53-62-51-70 2-9 1-10-5-3-4 6-14 13-22 16-9 2-2 9 18 17 20 9 31 20 29 30-4 17-30 19-62 6-14-6-17-5-12 3 4 7 1 12-7 12-13 0-27-20-27-37 0-3 10-3 22 0 19 5 21 4 8-6-9-7-14-20-12-29 2-10-2-18-8-18s-9 3-6 8c7 12-22 45-33 37-18-11-13-35 6-28 13 5 15 2 10-11-5-12 0-19 17-25 12-5 23-16 23-25s-2-14-5-11c-2 2-17-2-32-10l-27-14-2-197c-2-194-2-197 18-191 18 4 20 1 17-19-7-36-17-49-27-33-6 9-9 1-9-23 0-31 4-38 20-38 26 0 26-17 0-25-25-8-15-29 11-22 27 7 24-2-4-12-21-8-24-16-24-70 0-51 2-59 13-50 10 8 14 8 14 1 0-6-8-16-17-22-14-8-9-9 22-5 38 4 39 4 13-7-16-7-28-18-28-25s-4-13-10-13c-5 0-10-22-10-49 0-39 4-51 18-54 16-4 16-5 0-6-17-1-18-32-18-501v-500h706 706l-4 23c-2 13 2 29 9 36s10 17 7 23c-5 7-2 8 5 4 7-5 10-14 7-22s-1-14 3-14c5 0 16-3 25-6 13-5 16 1 16 30 0 36 10 43 58 37 6-1 12 3 12 9 0 5-16 10-35 10-52 0-42 15 12 18 27 1 50-2 54-9 4-6 12-8 19-4 9 6 9 9-1 16-10 6-11 9-1 9 6 0 12 7 12 15s9 19 19 25c26 14 31 13 31-6 0-8 5-12 10-9 6 3 10 1 10-5 0-7 7-9 16-6 22 8 72 17 56 10-19-9-14-24 9-24 15 0 19 4 15 16s-2 15 9 10c8-3 15-1 15 4 0 6 5 10 10 10 6 0 10-7 10-15s7-15 16-15c10 0 13 6 10 18-5 14 1 17 32 17 24 0 36 4 35 13-2 6 2 12 8 12 7 0 18 8 25 18 13 16 14 16 7-3-3-11-11-23-17-27s0-8 14-8 32 5 40 11c12 8 10 9-8 4-12-3-22-2-22 3 0 12 32 12 47 0 7-5 18-6 24-2 22 13 59 13 59-1 0-7 7-15 15-19 8-3 15-17 15-31 0-25 6-29 49-25 17 1 22-2 18-13-3-9 2-17 14-20 10-3 26-20 33-39 13-28 13-33 0-36-30-7-8-29 39-38 14-3 17 3 17 36 0 22 4 40 8 40s7-17 5-37c-2-21 0-32 3-25 3 6 12 12 20 12s14 8 14 18c0 14 2 15 10 2 14-21 12-30-5-30-8 0-15-4-15-10 0-5 9-10 20-10s20 6 20 14c0 21 26 40 36 25 4-7-1-18-11-25-15-12 1-13 108-13 115 1 127 2 132 20 4 10 3 23 0 29-3 5-4 10-1 10s13-15 21-33c15-31 15-31 11-4-4 33 10 36 18 3 6-23 9-23 108-25 113-1 120 8 26 39-30 10-52 23-50 30s-3 10-12 7c-9-4-18-1-22 4-3 6-15 9-25 6s-19-1-21 3c-2 5-15 10-30 12s-30 7-34 11-16 7-26 7-18 6-18 14-5 18-12 22-8 3-4-4c11-17 1-15-54 14-28 14-50 31-50 36 0 6-7 7-16 4-22-8-40 4-23 15 11 7 10 9-3 9-10 0-18 5-18 10 0 6-5 10-10 10-7 0-7-7 1-21 8-17 8-20-2-17-6 2-16 13-20 25-6 16-3 22 12 26 10 3 19 1 19-4s16-9 36-9 33 4 29 10c-3 5-12 7-19 4-8-3-17-1-21 5-4 7 7 11 30 11 20 0 45 5 56 11 20 10 94 0 144-21 11-4 43-16 70-25 99-34 306-135 300-146-3-4-1-10 5-14 5-3 10-15 10-25s6-20 13-23c6-3-7-3-31-2-24 2-40 0-37-6 4-5 13-9 21-9s14-4 14-10 94-10 262-10c252 0 263 1 284 21 12 12 20 27 18 34-3 7 2 25 11 39 19 29 55 35 55 9 0-10 22 7 56 45 59 65 80 74 108 43 16-18 16-19-9-25-15-4-35-4-46-1-13 4-19 2-19-9 0-9 5-16 11-16s9-6 6-13c-4-10 3-13 21-12 49 3 52 5 53 23 0 10 3 12 6 5 2-7 19-13 36-13 25-1 29-3 16-10-9-5-27-11-40-14-15-2-23-9-21-18 1-9-5-21-13-28s-15-21-15-32c0-17 5-19 33-16 17 3 41 8 52 13l20 8-20-16c-19-15-13-16 90-17 71 0 105 4 95 9-8 6-17 8-21 5-12-7-16 31-4 43 18 17 29 125 13 134-7 4-9 11-5 15s3 12-3 19-1 24 16 49c29 42 27 53-5 36-20-10-21-9-15 17 9 38 31 61 78 84 58 28 65 23 15-10-24-16-47-27-51-25-4 3-5-2-1-12 4-12 14-15 42-11 34 5 34 4 11-6-14-7-27-19-28-27-2-8-5-23-7-32s-9-26-15-37c-9-18-8-21 11-21h22l-21-23-22-24 32 4c33 4 33 4 8-9-29-16-34-45-6-40 10 2 25 0 35-4 12-5 7-9-19-13-26-5-35-11-35-26 0-11 7-20 15-21 35-2 39-5 34-18-3-8 4-24 15-35 25-25 98-30 107-7 3 8 16 17 29 20 25 6 50 40 41 54-3 5-24 9-48 11-50 3-65 11-20 11 36 0 52 18 28 32-9 5-14 14-10 19 3 5 0 16-6 24-8 10-9 15-2 15 11 0 62 43 62 53 0 3-14 10-31 16-18 6-28 15-24 21 4 7-2 14-15 17-22 6-21 6 6 19 26 11 26 12 7 13-30 1-39 18-9 19 34 0 80 24 84 45 3 12-3 17-22 17-14 0-27-4-30-9s-16-11-28-14c-20-6-20-5 5 18 14 14 43 28 64 31s40 7 41 9c2 2 15-6 28-18 22-19 23-22 7-39-18-20-49-25-37-6 4 7 3 8-5 4-6-4-8-12-5-18 4-5-8-23-25-39-27-25-30-32-21-49 9-18 14-19 26-9 9 7 22 25 30 41s19 26 24 23c6-4 10-1 10 4 0 6 9 11 20 11s20-4 20-10c0-5-6-10-13-10-19 0-47-33-47-53 0-19 15-23 26-5 5 8 10 7 18-4 6-9 20-18 31-20 18-4 17-6-8-18-26-13-47-54-33-67 3-3 14 0 23 8 10 8 35 23 57 32 36 17 38 17 32 1-4-10-1-21 6-26 10-6 9-8-3-8-9 0-28-12-42-26-21-21-24-29-15-44 11-16 13-17 47-1 20 9 49 29 65 44 21 20 32 24 41 17 7-6 17-10 21-9 5 1 17 1 27 0 23-1 22-21-1-21-12 0-21-12-29-40-10-38-9-40 12-40 44 0 144 48 130 62-3 2 10 2 28 0l32-5-27-9c-22-8-28-16-28-39 0-38 31-39 68-2 15 15 34 28 42 30 21 3 60-24 60-42 0-23 66-19 90 5 27 27 81 27 100 0 15-21 60-28 60-9 0 5 4 8 9 4 5-3 13-1 16 5 4 6 38 10 81 9 76-2 104-14 104-45 0-16 65-20 75-4 4 6 10 8 15 5 4-3 13 2 20 10s19 15 26 15c8 0 14 7 14 16 0 10 5 14 16 10 8-3 12-2 9 4s-2 10 4 10 15-9 21-21c9-17 20-20 56-18 35 2 47-1 59-18 8-11 11-23 8-27-3-3 16-6 43-5 27 0 43 3 36 6-6 2-10 9-7 14 4 5 16 2 28-6 22-14 70-17 61-4-2 4 2 9 8 12 10 3 10 7-1 20-9 11-23 15-45 12-28-5-33-2-43 25-8 20-18 30-32 30-12 0-30 9-41 20-19 19-19 20 0 30 10 5 54 15 97 21 88 12 96 15 89 35-3 8-1 14 5 14s7 4 4 10c-8 13 36 13 69 0 19-7 33-5 56 8 37 21 39 33 3 26-16-3-39 0-53 6l-25 10 28-5c15-3 27-2 27 3 0 11 60 55 66 49 3-3-3-12-12-21-15-16-15-19 5-40l22-24-34-6c-41-8-60-27-51-50 4-11 1-16-10-16s-16-9-16-30c0-29 1-30 50-30h58c15-1 13 38-3 54-14 13-14 16-2 16 8 0 17-10 20-21 5-18 11-20 34-14 15 3 36 14 46 23 17 15 17 17 2 28s-15 13 2 23c14 8 15 10 3 11-9 0-20-4-25-9-6-5-19-5-30-1-19 8-19 9 1 9 12 1 32 10 45 20 19 16 22 22 12 32-7 7-13 18-13 23 0 6 4 6 8-1 6-9 12-7 25 7 16 19 16 20-6 21h-22l23 11c12 6 22 15 22 20 0 4 7 8 15 8 20 0 47 43 39 63-6 17-31 30-44 22-5-3-11-1-15 5-3 6 0 13 9 16 13 5 33 57 28 75-1 4 9 5 21 2 17-4 19-2 8 5-11 8-8 11 15 14 19 2 29 8 28 19-2 20 21 19 63-4 18-9 46-17 63-17 30 0 41-14 18-24-18-7 36-52 97-80 51-24 89-54 98-78 3-10 8-10 17-2 9 9 9 17 0 34-11 20-10 21 9 10 12-6 21-15 21-21s4-7 10-4c7 4 10 465 10 1351v1344l-1712-2c-942-2-1711-6-1708-9 8-11-32-49-51-49-10 0-21-4-24-10-3-5 1-10 9-10 9 0 16-4 16-10 0-5-6-9-12-7-8 1-13-7-12-20 1-39-13-15-31 52l-18 65-96-1c-53-1-88-3-78-6 9-2 17-9 17-15s-8-17-17-24c-17-13-17-13 0-14 16 0 17-31 17-510v-510l-27 6c-16 4-33 13-40 21-7 9-19 12-31 9-27-9-38 32-14 50 9 7 19 8 20 3 2-5 8-9 14-9s5 7-3 16c-11 14-10 18 6 30 17 12 17 14 2 14-10 0-25 4-35 10-9 5-42 21-72 35-30 15-66 33-80 41-14 7-46 23-72 34-27 11-48 25-48 30 0 6-8 10-17 10-29 0-126 53-173 93-24 20-48 37-54 37-16 1-56 36-56 49 0 11-13 15-38 12-6-1-23 10-36 24s-28 25-34 25-12 10-14 21c-2 12-12 27-23 33s-22 12-25 14c-2 2 2 7 10 12s11 12 7 16c-3 4-14 1-23-7-16-13-17-11-11 13 4 14 10 34 14 44 4 12 3 15-5 10-7-4-12-3-12 3s31 9 83 7c74-3 78-2 44 8-63 19-33 24 65 10 50-7 97-10 104-7s19 1 26-3c7-5 27-9 43-9 17-1 35-3 40-6 6-2 11 0 13 5 3 9-71 37-87 34-3-1-31 3-60 7-47 7-52 9-31 17 13 5 31 6 39 2 17-7 52-10 182-19 46-3 100-7 119-10s29-2 22 1c-6 3-10 9-8 13 3 4-3 7-12 8-36 2-109 13-144 22-27 6-38 6-38-3 0-8-3-8-8 0-4 6-16 14-26 17-33 13-13 16 54 8 36-5 66-5 68 0 2 4 14 4 27-1 12-5 36-8 52-8 15 1 38-2 51-6 18-6 22-4 22 14 0 17-4 19-25 14-14-3-33-3-42 1-23 10-87 20-145 24-10 1-18 5-18 9 0 8 89 6 97-2 3-2 17 0 33 4s31 5 35 2c4-4 37-8 73-9 37-2 93-4 124-6 64-3 66 11 2 16-21 1-43 5-49 9-5 3-43 9-83 12-40 4-79 10-88 13s-29 7-45 8c-71 4-79 6-79 14 0 5 22 8 50 8 27-1 50-4 50-7s36-5 80-4 83-2 86-7c10-17 34-9 34 11 0 16-7 20-37 21-37 0-79 5-118 13-11 3-23 5-27 5-5 1-8 5-8 11 0 5 28 7 68 5 130-9 193-8 203 2s-16 15-146 29c-16 2-41 6-55 8s-32 5-40 5c-13 1-13 2 0 11 8 6 38 8 65 5 28-3 82-7 120-8 56-2 70 1 70 13 0 9-11 15-30 15-16 0-35 4-42 8-6 4-18 4-27 1-11-4-16-1-16 10 0 18-16 22-22 5-5-14-91-14-96 0-2 6-237 10-685 10-375 0-676-3-669-5 6-3 12-17 12-32 0-14 8-34 17-45 17-18 17-19 0-28-9-6-17-19-17-29s-4-22-10-25c-5-3-10-15-10-26 0-13-7-19-21-19-22 0-42-16-52-42-6-18-37-15-37 3 0 5-6 9-13 9-10 0-14-14-14-46 0-25-5-49-12-53-19-12 14-122 43-142 4-4 5-16 1-28s-2-21 4-21c18 0 12-30-6-36-10-3-27-10-39-16-11-5-52-10-90-11l-70-2v96c1 67-3 101-13 113-7 9-9 16-5 16 5 0 15-9 22-20s20-20 29-20 14-3 10-6c-3-3 6-16 21-29 20-17 31-21 44-14 18 10 25 59 9 59-9 0-24 33-25 55-2 20-52 110-69 123-23 17-22 32 3 32s25 5-1 41c-19 28-59 40-59 19 0-6-15-4-36 5-19 8-38 14-42 13s-25 4-47 10c-53 16-65 15-65-3 0-8 7-15 15-15s15-4 15-8c0-5 27-36 61-70 56-58 67-82 34-82-8 0-20 8-27 18-23 30-47 44-85 49-21 3-40 8-43 12s-20 16-37 26c-18 11-33 22-33 26s-7 10-16 13c-11 4-15 2-11-8 8-21-32-7-44 16-5 10-14 16-20 12-7-4-6-10 1-19 8-9 8-14-1-17-17-6-22-77-8-95 10-11 10-16 1-22-9-5-6-13 8-29 11-11 27-39 36-61 9-23 20-39 24-36 5 3 3-9-3-25-10-25-9-33 3-40 10-7 11-12 4-17-9-7-11-44-5-75 3-14 74-48 102-48 16 0 29-4 29-8s16-25 35-46 35-45 35-52c0-9 6-11 18-7 15 6 15 5 3-10-7-9-20-17-27-17-8 0-14-7-14-15 0-24 30-17 40 9 11 31 30 42 31 19 5-107-14-167-49-155-8 2-12-9-13-35-1-49-6-74-16-84-12-12-91 29-98 51-3 11-20 22-38 25-18 4-45 14-62 23-16 8-36 18-44 22-24 11-73 111-68 137 2 13 0 26-5 29s-6 14-3 24c11 35-48 119-83 120-16 0-63-29-79-50-7-8-12-24-13-35 0-18 3-17 23 7 24 30 76 60 89 52 4-3 8-30 8-61 0-74 26-163 48-164 10 0 12-3 5-6-10-3-10-9 0-26 28-48 75-101 100-110 19-7 23-32 6-43-6-3-36-6-66-5-51 1-55-1-50-19 3-14-1-24-15-31-15-8-17-13-8-25 7-7 16-11 21-8s9 0 9-6-10-10-22-9c-44 4-58 0-51-17 4-12 8-13 13-3 5 7 8-19 8-57s1-112 3-164c3-112-8-195-27-211-10-8-11-16-3-30 7-15 6-19-5-19-12 0-14-5-6-24 6-17 5-24-3-22-24 3-36 17-30 34 4 9-7 3-24-14-23-23-35-29-47-22-10 6-16 5-16-2 0-5-7-10-15-10s-15 5-15 11c0 5 5 7 10 4 6-3 10 2 10 12 0 25 19 43 45 43 30 0 36 9 22 31-8 13-15 15-23 8-9-7-16-4-24 10-6 12-7 21-2 21 14 0 8 44-6 50-9 4-7 11 8 27 11 12 20 27 20 33 0 21 24 36 52 32 19-3 28 0 29 9 0 8 2 23 4 34 6 28-4 55-20 55-8 0-11-7-8-20 3-11 1-20-5-20-18 0-24 20-12 35 11 14 3 59-20 105-4 8-6 41-4 72 2 49-1 60-25 87-16 17-36 49-46 71s-21 38-24 35c-4-2-7 4-7 13-1 48-26 306-36 362-5 36-12 79-15 96-3 18 7 78 22 135 26 103 57 167 132 272l35 47h-261-261zm3386 139c-3-3-12-4-19-1-8 3-5 6 6 6 11 1 17-2 13-5zm-3343-29c15-11 17-21 12-51-7-33-8-35-21-18-7 10-11 22-9 26s-1 10-7 14c-8 4-7 9 2 15 10 6 11 9 2 9-7 0-13 5-13 10 0 14 11 12 34-5zm2706-27c0-6-7-7-16-4s-28 6-42 7l-27 1 25 7c29 9 60 3 60-11zm-120-48c0-5-2-10-4-10-3 0-8 5-11 10-3 6-1 10 4 10 6 0 11-4 11-10zm810-79c-13-24-30-28-30-6 0 8 7 15 15 15s15 8 16 18c0 9 3 12 5 5 3-7 0-21-6-32zm-70-54c0-10-4-15-10-12-13 8-13-11 0-36 8-14 7-25-5-41-14-22-15-21-15 24 0 65 11 113 21 96 5-7 9-21 9-31zm-2274-4c-10-10-19 5-10 18 6 11 8 11 12 0 2-7 1-15-2-18zm1334-3c0-5-4-10-10-10-5 0-10 5-10 10 0 6 5 10 10 10 6 0 10-4 10-10zm-1297-29c3-13 1-18-8-14-8 2-13 13-12 23 1 23 13 17 20-9zm254-127c-9-9-28 6-21 18 4 6 10 6 17-1 6-6 8-13 4-17zm39-69c15-14 25-26 23-28-54-31-79-35-79-12 0 8 5 15 10 15 6 0 10 11 10 25 0 31 2 31 36 0zm2124-254c-14-26-13-28 11-34 27-7 15-27-15-27-32 0-55-28-35-41 11-8 10-9-6-7-12 2-21 12-23 28-2 13-10 33-18 44-28 40-17 48 74 54 19 2 21-1 12-17zm1647-83c-3-8-6-5-6 6-1 11 2 17 5 13 3-3 4-12 1-19zm-112 2c3-5 1-10-4-10-6 0-11 5-11 10 0 6 2 10 4 10 3 0 8-4 11-10zm-4720-47c-6-35-25-70-25-47 0 18 21 84 27 84 3 0 2-17-2-37zm819 31c8-3 20-21 26-40s16-34 20-34c5 0 7-6 4-14s2-17 13-20c10-3-2-3-27 1-25 3-71 7-102 7-32 1-58 4-58 7 0 15 33 32 61 32 25 0 30 4 27 21-2 19 8 46 17 46 2 0 10-3 19-6zm3613-26c-22-31-23-34-7-48 17-17 18-16 65 27l24 22-3-40c-2-21-3-39-1-39s22 18 44 39c25 24 41 34 41 25s5-12 11-9c6 4 8 14 5 22-5 11 1 14 22 11 19-2 28-9 30-25 2-13 10-23 19-23s13 6 9 15c-3 10 1 15 12 15 25 1 57 27 40 33-7 3 4 6 25 6 35 1 37-1 27-19-6-11-20-20-30-20-11 0-20-5-20-12 0-6 3-8 7-5 3 4 16 1 28-7 31-20 59-23 78-8 13 11 17 10 27-8 9-16 14-19 25-10s12 7 8-10c-3-13-16-23-34-27-24-4-28-11-31-41-2-19-9-38-17-40-9-3-11 0-6 8s1 18-10 27c-13 9-19 25-18 48 1 19-3 38-8 41s-9 0-9-5c0-6-7-11-15-11s-15-4-15-10c0-5 6-9 13-7 7 1 12-8 11-20 0-13 3-23 8-23 4 0 8-13 8-30 0-20 5-30 15-30 8 0 15-4 15-9 0-12-48-23-70-16-13 4-19-1-24-17-3-13-19-31-36-40-29-17-40-38-20-38s9-18-15-24c-14-4-25-13-25-21 0-9-10-15-26-15-25 0-26-2-19-36 4-26 2-40-7-46-10-8-10-11 0-15 17-7 15-33-3-33-9 0-20-11-25-25-13-34-26-31-45 8-23 46-38 64-60 70-15 3-13 5 8 6 31 1 28 21-4 21-10 0-19 7-19 15 0 20-29 19-52-2-10-9-20-14-23-11-3 2-7 34-9 69-3 35-3 54 0 42 3-13 10-23 15-23 15 0 24 33 10 38-8 3-4 14 12 36 23 29 24 35 13 79-6 26-16 47-22 47-14 0-59-70-56-86 1-6-5-18-14-25-15-13-16-11-12 16 3 17 11 46 18 65s15 42 17 50c4 13 5 13 14 0 8-11 9-8 5 13-5 18-3 26 6 25 6-2 14 6 16 16 4 20 60 83 75 85 4 1-3-14-16-31zm528-38c3-5-1-10-10-10s-13 5-10 10c3 6 8 10 10 10s7-4 10-10zm-668-52c-3-8-6-5-6 6-1 11 2 17 5 13 3-3 4-12 1-19zm73-113c0-8-4-15-10-15-5 0-7 7-4 15 4 8 8 15 10 15s4-7 4-15zm-4030-10c0-13-4-14-20-5-11 6-20 13-20 15 0 3 9 5 20 5s20-7 20-15zm4484-30c-4-8-10-12-15-9-14 8-10 24 6 24 9 0 12-6 9-15zm-4394-14c7-13 7-20 0-23-7-2-5-11 4-23 15-19 15-18 12 13-2 22 1 32 10 32 14 0 18-15 14-57-1-18 2-21 15-16 15 5 16 3 6-15-8-15-8-22-1-22 5 0 10-4 10-8s-9-8-20-8c-12 0-19 5-16 12s-4 14-15 17-19 14-19 25-16 32-37 48c-33 25-34 28-17 35 31 12 43 10 54-10zm-475-29c-8-2-15-10-15-18s4-13 10-9c5 3 5-7-1-25-13-37-26-38-42-2-6 15-16 31-22 35-5 5 0 5 13 2 12-4 22-2 22 4 0 5 7 17 16 26 14 13 19 14 25 3 6-8 3-14-6-16zm-61-64c-6-9-34 1-34 12 0 5 6 10 13 13 13 4 28-13 21-25zm4833 0c-3-7-5-2-5 12s2 19 5 13c2-7 2-19 0-25zm-4210-30c-3-8-6-5-6 6-1 11 2 17 5 13 3-3 4-12 1-19zm4113-28c0-5-4-10-10-10-5 0-10 5-10 10 0 6 5 10 10 10 6 0 10-4 10-10zm-4790-22c0-16-3-19-11-11-6 6-8 16-5 22 11 17 16 13 16-11zm660-9c0-3-9-15-20-27-21-23-24-70-5-84 6-5 4-8-5-8-10 0-19 16-26 43-6 23-14 50-19 60-5 12-3 17 10 17 9 0 14-4 10-9-3-5-1-12 5-16 5-3 10-1 10 4 0 6 7 11 16 11 12 0 11 5-7 20l-24 20 27-13c16-6 28-15 28-18zm-680-42c-1-29-21-55-39-49-10 3-12 0-8-12 4-10-4-38-19-66-23-45-29-50-60-50-34 0-34 0-14 20 11 11 17 26 14 34-3 9 3 28 14 43 10 15 17 34 14 41-4 13 19 34 63 58 25 14 35 8 35-19zm696-92c1-8-2-17-7-21-5-3-9 7-9 22 0 27 12 26 16-1zm-3-65c-6-22-23-38-23-21 0 5-3 16-6 25-4 11 0 16 14 16 15 0 19-5 15-20zm1031-19c3-5-1-14-8-20-16-13-32 2-21 19 8 12 22 13 29 1zm-1556-25c-8-9-17-11-24-5-6 5-15 5-19 1-5-4-6-2-2 3 3 6 17 11 32 13 21 1 24 0 13-12zm-63-6c3-5 1-10-4-10-6 0-11 5-11 10 0 6 2 10 4 10 3 0 8-4 11-10zm588-65c-8-25-8-35 0-35 6 0 8-2 6-5-3-2-15-2-28 2-17 4-20 8-9 15 9 7 10 11 2 14-9 4-9 14-1 40 9 31 12 33 26 20 12-12 13-22 4-51zm-333-9c0-2-8-10-17-17-16-13-17-12-4 4s21 21 21 13zm-96-22c4-9 4-19 1-22s-5 0-5 6c0 7-10 12-22 12-19 0-20 2-8 10 21 14 27 12 34-6zm42 1c-3-8 0-15 6-15s9-3 5-6c-10-11-26 6-20 21 3 8 7 15 10 15s3-7-1-15zm1714-5c0-5-4-10-10-10-5 0-10 5-10 10 0 6 5 10 10 10 6 0 10-4 10-10zm-40-29c0-20-13-41-21-35-15 9-10 44 6 44 8 0 15-4 15-9zm-1639-18c13-15 12-15-8-5-16 9-23 9-26-1-3-7-6-5-6 6-1 22 22 22 40 0zm1593-10c6-15-8-32-26-33-12 0-20 20-14 35 7 20 32 19 40-2zm-1270-19c3-8 2-12-4-9s-10 10-10 16c0 14 7 11 14-7zm4186-3c0-28-11-52-21-45-10 6-12 48-2 57 12 13 23 7 23-12zm-4520-11c0-5-4-10-10-10-5 0-10 5-10 10 0 6 5 10 10 10 6 0 10-4 10-10zm-80-10c0-5-7-10-15-10s-15-5-15-10c0-9 26-7 67 5 14 4 25-33 12-41-6-3-17-3-27 1-14 5-14 7-2 15 11 7 11 10 2 10-7 0-15-7-18-15-4-8-17-15-30-15-15 0-24-6-24-15 0-10 10-15 30-15 37 0 39-17 4-30-32-13-37-12-29 0 7 11-9 13-42 4-13-4-23-12-23-19 0-9 8-11 23-8 37 9 7-14-40-30-36-12-44-12-54-1-9 11-8 14 6 14 12 0 15 5 11 16-3 9-6 19-6 24s-6 10-12 13c-7 2-3 2 9 1 12-2 25 0 28 6 3 5 15 10 27 10 16 0 19 5 15 21-7 25 13 49 40 49 10 0 27 7 37 15 23 18 26 18 26 5zm-120-60c20-13 10-19-22-13-15 3-25 9-22 14 7 12 25 11 44-1zm5587-59c2-9 9-24 14-33 7-15 5-18-14-18-23 0-30-6-125-107-32-35-63-63-70-63s-12-4-12-10c0-5 5-10 10-10 17 0 11-29-9-49-10-10-30-19-43-19-12-1-34-2-48-4-14-3-33 2-43 11-9 8-20 11-23 8-4-3-13 1-21 9-9 8-22 13-29 10-13-5-46 40-59 82-5 17-1 24 17 31 17 7 19 10 6 10-22 1-23 10-2 40 15 21 22 22 70 16 49-6 54-4 69 19 20 30 41 39 64 26 23-12 80 3 112 30 13 11 29 24 34 28 29 24 94 19 102-7zm-1447-15c0-21 21-31 30-15 7 10 14 10 35 1 15-7 31-10 36-7 5 4 9-1 9-9 0-20 38-21 64-1 19 14 36 12 36-5 0-5-10-12-22-16-32-10-78-46-72-56s-59-39-78-36c-18 4-50 46-44 56 5 9-3 46-19 85-5 12-2 17 9 17 9 0 16-6 16-14zm1130-56c0-5-4-10-10-10-5 0-10 5-10 10 0 6 5 10 10 10 6 0 10-4 10-10zm-1155-40c3-5-1-10-9-10-9 0-16 5-16 10 0 6 4 10 9 10 6 0 13-4 16-10zm555-50c0-5-9-10-19-10-11 0-23 5-26 10-4 6 5 10 19 10s26-4 26-10zm-3115-374c63-42 165-141 165-161 0-7-4-17-10-20-5-3-10-15-10-25 0-13-12-25-35-34-19-8-35-19-34-23 5-31-27-42-44-15-16 25-25 11-13-20 22-52 6-78-46-79-24-1-54-3-68-4-14-2-32 1-40 6-13 7-12 8 3 9 9 0 17 4 17 9 0 13-69 21-98 10l-27-9 30 27c21 18 24 24 10 19-46-18-50-14-47 44 2 43 0 52-8 40-9-12-10-9-5 14 3 15 18 43 32 61 23 29 28 32 38 18s13-13 18 6c7 30 7 36-5 33-5-1-7 2-3 8 3 5 15 10 26 10 10 0 19 6 19 14 0 7 7 19 15 26s13 16 10 20 2 11 10 14 15 9 14 13c-6 34 23 30 86-11zm4633-43c19-8 32-17 29-19-4-5-97 34-97 41 0 5 25-3 68-22zm-2118-113c0-5-5-10-12-10-6 0-20-7-30-16-14-14-20-14-33-4-8 7-23 9-32 6-14-6-15-5-6 5 7 7 32 16 55 20 24 3 46 7 51 8 4 0 7-3 7-9zm-143-76c-3-3-12-4-19-1-8 3-5 6 6 6 11 1 17-2 13-5zm1890-70c-3-3-12-4-19-1-8 3-5 6 6 6 11 1 17-2 13-5zm-2107-24c0-3-11-15-24-27l-24-23-5 22c-3 12-4 25-1 30 5 8 54 7 54-2zm544-40c4 0 4 5 1 10-10 16 5 12 32-10 14-11 21-20 16-20s-15 6-22 13c-10 10-15 8-26-6-17-24-51-15-58 15-9 33 3 42 27 19 12-12 26-21 30-21zm-2539 14c-9-9-19-14-22-10-3 3-12 1-20-5-10-9-13-7-13 10s6 21 36 21c33 0 34-1 19-16zm-95-4c0-5-4-10-10-10-5 0-10 5-10 10 0 6 5 10 10 10 6 0 10-4 10-10zm1816-26c-19-19-20-26-4-42 9-9 9-12 0-12-7 0-12-6-12-14 0-7-11-16-25-18-21-5-25-2-20 13 4 11 2 19-5 19-15 0 27 53 48 62 28 11 34 9 18-8zm270-41c-10-10-19 5-10 18 6 11 8 11 12 0 2-7 1-15-2-18zm641-15c-3-8-6-5-6 6-1 11 2 17 5 13 3-3 4-12 1-19zm-2452-8c-3-5-10-10-16-10-5 0-9 5-9 10 0 6 7 10 16 10 8 0 12-4 9-10zm1811-27c-8-15-15-22-16-15 0 17 20 55 27 49 2-3-2-18-11-34zm-1808-24c13-21 13-22-1-6-8 9-19 17-25 17s-13 4-16 9c-4 5 2 8 11 7 9-2 23-14 31-27zm3432-19c0-5-2-10-4-10-3 0-8 5-11 10-3 6-1 10 4 10 6 0 11-4 11-10zm-3215-50c3-5-3-10-14-10s-23 5-26 10c-3 6 3 10 14 10s23-4 26-10zm96 1c-11-7-10-10 5-14 10-3 2-4-18-3-44 1-46 3-15 16 29 11 46 12 28 1zm-156-11c3-5 1-10-4-10-6 0-11 5-11 10 0 6 2 10 4 10 3 0 8-4 11-10zm1532-20c3-10 2-11-4-4-4 6-15 14-23 17-11 5-9 6 4 4 11-1 21-9 23-17zm-1575-12c-7-7-12-8-12-2 0 14 12 26 19 19 2-3-1-11-7-17zm143 12c3-5-3-10-15-10s-18 5-15 10c3 6 10 10 15 10s12-4 15-10zm99-6c3-8 2-12-4-9s-10 10-10 16c0 14 7 11 14-7zm49-1c-6-16-11-16-28 1-12 12-11 14 9 12 14 0 22-6 19-13zm-80 0c-7-2-19-2-25 0-7 3-2 5 12 5s19-2 13-5zm-253-24c0-11-4-17-10-14-5 3-10 13-10 21s5 14 10 14c6 0 10-9 10-21zm1695 11c-3-5-11-10-16-10-6 0-7 5-4 10 3 6 11 10 16 10 6 0 7-4 4-10zm-1435-10c0-5-5-10-11-10-5 0-7 5-4 10 3 6 8 10 11 10 2 0 4-4 4-10z"/><path d="m4740 1845c-10-13-9-15 9-15 11 0 21 4 21 9 0 18-18 21-30 6z"/><path d="m4862 1821c-11-7-11-9 2-14 10-4 16-1 16 8 0 17-1 17-18 6z"/><path d="m346 1251c-4-7-5-15-2-18 9-9 19 4 14 18-4 11-6 11-12 0z"/><path d="m2993 3103c9-2 25-2 35 0 9 3 1 5-18 5s-27-2-17-5z"/><path d="m3322 3098c-18-18-14-28 8-28 11 0 20 6 20 14 0 21-15 27-28 14z"/><path d="m1092 3045c2-19 7-24 19-20 10 3 20 1 24-5 9-15 25-12 25 4 0 14-41 46-60 46-5 0-9-11-8-25z"/><path d="m3071 2996c-8-10-9-16-1-21 5-3 13 1 16 10 9 22-1 29-15 11z"/><path d="m2979 2937c15-18 61-23 61-7 0 6-6 10-12 10-7 0-24 3-38 7-22 6-24 5-11-10z"/><path d="m3055 2940c-3-6 1-13 10-16 19-8 30 0 20 15-8 14-22 14-30 1z"/><path d="m2890 2830c0-4 9-10 20-13 32-8 35-8 35 4 0 7-12 13-27 15-16 1-28-1-28-6z"/><path d="m2970 2820c0-5 5-10 10-10 6 0 10 5 10 10 0 6-4 10-10 10-5 0-10-4-10-10z"/><path d="m2875 2760c3-5 13-10 21-10s14 5 14 10c0 6-9 10-21 10-11 0-17-4-14-10z"/><path d="m2700 2730c0-5 7-10 16-10 8 0 12 5 9 10-3 6-10 10-16 10-5 0-9-4-9-10z"/><path d="m2790 2729c0-5-4-7-10-4-5 3-10 1-10-4 0-6 7-11 15-11s15 7 15 15-2 15-5 15-5-5-5-11z"/><path d="m2820 2720c0-5 5-10 11-10 5 0 7 5 4 10-3 6-8 10-11 10-2 0-4-4-4-10z"/><path d="m2858 2703c7-3 16-2 19 1 4 3-2 6-13 5-11 0-14-3-6-6z"/><path d="m0 2653c0-22 2-25 10-13 13 20 13 40 0 40-5 0-10-12-10-27z"/><path d="m6 2561c-4-5 0-12 6-14 10-4 10-6 1-6-10-1-13-30-13-110 0-114 9-141 36-102 8 12 22 21 30 21s14 4 14 9c0 14-26 32-35 23-5-4-5 1-2 11 4 11 1 25-8 33-8 9-15 21-14 27 0 9 2 8 6 0 2-7 9-13 15-13s8 6 5 14 1 22 8 33c17 21 20 63 5 63-5 0-10-6-11-12 0-7-4-3-9 10-10 23-25 29-34 13z"/><path d="m105 2479c-10-15 1-23 20-15 9 3 13 10 10 16-8 13-22 13-30-1z"/><path d="m70 2445c0-8 7-15 15-15s15 4 15 9-7 11-15 15c-9 3-15 0-15-9z"/><path d="m863 2434c-3-8-3-18 1-21 3-4 6-1 6 5 0 7 5 12 10 12 6 0 9-19 6-49-3-36-1-51 9-55 20-7 28 27 15 72-11 42-37 62-47 36z"/><path d="m961 2330c0-8 11-26 25-39 24-23 25-23 39-5 8 10 14 28 13 39-1 17-1 17-5-2-5-27-23-31-23-6 0 13-3 14-12 5-17-17-26-15-31 6-3 12-5 13-6 2z"/><path d="m830 2259c0-9 7-22 15-29 19-16 19 0 0 26-12 16-14 16-15 3z"/><path d="m850 2200c0-5 5-10 11-10 5 0 7 5 4 10-3 6-8 10-11 10-2 0-4-4-4-10z"/><path d="m480 1673c0-10 4-25 10-33 8-12 10-12 16 3 7 20-1 47-16 47-5 0-10-8-10-17z"/><path d="m6402 590c-9-15-8-19 4-24 9-3 20-4 24-1 5 3 26-1 46-10 20-8 39-13 42-10 3 2-8 9-23 15s-40 19-54 30c-26 18-27 18-39 0z"/><path d="m6364 550c-17-17-4-65 19-75 12-6 23-20 25-33 5-35 35-45 76-25 29 13 36 22 36 46 0 30-32 66-60 67-9 0-20 4-25 9-16 14-61 21-71 11z"/><path d="m6350 406c0-8-3-16-7-18-5-1-17-26-29-54-17-41-19-54-9-67 7-9 15-14 18-10 4 3 7-2 7-13s-13-27-30-37c-35-21-39-37-9-37 27 0 47 12 92 53 35 32 37 36 22 51-20 19-27 20-44 4-9-9-12-9-7-1 3 6 0 14-6 16-10 4-9 6 1 6 10 1 11 4 2 15s-5 15 20 20c17 3 35 3 40 0 14-8 10 9-6 30-12 16-12 22-2 35 9 12 9 13 0 7-7-4-22-2-33 4-16 8-20 8-20-4z"/><path d="m6653 389c-15-6-23-17-23-33 0-26 16-36 61-36 31 0 37 16 19 49-13 24-30 30-57 20z"/><path d="m6730 360c0-18 26-40 48-40 19 0 23 34 6 47-27 20-54 16-54-7z"/><path d="m6464 360c-12-5-25-14-29-20-10-17 3-60 19-60 8 0 16-6 19-14 3-7 19-16 37-19 17-4 29-11 25-17-3-5 1-20 9-32 9-12 16-32 16-44 0-17-5-21-20-17-26 7-37-21-19-53 7-13 23-27 35-30 19-5 21-9 14-30-9-23-8-24 30-24h40v75c0 42 4 75 10 75 5 0 12 11 16 25 7 29-10 55-37 55-13 0-19 7-19 24 0 31-10 56-21 56-12 0-11-47 1-55 6-3 10-18 10-31 0-31-20-28-36 5-6 12-19 27-28 34-17 12-17 15 0 51 16 32 16 38 4 46-18 12-48 12-76 0zm166-310c0-5-10-10-22-10-19 0-20 2-8 10 19 13 30 13 30 0z"/><path d="m6453 249c4-13 7-27 7-30 0-4 6-9 14-12 12-5 13-1 4 24-13 37-34 52-25 18z"/><path d="m2472 244c-7-8-8-14-3-14 10 0 25 19 20 25-2 1-10-3-17-11z"/><path d="m4351 218c-17-18-31-39-31-45 0-21 37-14 52 10 40 61 25 84-21 35z"/><path d="m6747 223c-10-10-8-43 2-43 9 0 21 24 21 41 0 11-14 12-23 2z"/><path d="m2040 211c0-5 9-7 20-4s20 7 20 9-9 4-20 4-20-4-20-9z"/><path d="m1990 199c0-5 4-8 9-5 5 4 11 0 14-6 2-7 8-9 13-5s2 12-6 17c-20 13-30 12-30-1z"/><path d="m2085 190c3-5 8-10 11-10 2 0 4 5 4 10 0 6-5 10-11 10-5 0-7-4-4-10z"/><path d="m1890 181c0-6 5-13 10-16 6-3 10 1 10 9 0 9-4 16-10 16-5 0-10-4-10-9z"/><path d="m6500 181c0-6 4-13 10-16s7 1 4 9c-7 18-14 21-14 7z"/><path d="m6346 159c-31-24-32-45-7-77 18-20 22-21 58-9 35 12 38 15 35 47-1 19-4 41-7 48-7 19-49 14-79-9z"/><path d="m1625 160c-3-5-1-10 4-10 6 0 11 5 11 10 0 6-2 10-4 10-3 0-8-4-11-10z"/><path d="m5898 158c-22-7-28-16-28-38 0-36 16-49 74-56 47-7 48-8 42-37s-6-30 31-24c61 8 93 24 93 47 0 13-7 20-18 20-10 0-23 5-30 12-9 9-18 9-37 0-34-16-32-17-39 23-7 36-29 66-49 64-7 0-24-5-39-11z"/><path d="m2121 124c0-11 3-14 6-6 3 7 2 16-1 19-3 4-6-2-5-13z"/><path d="m2151 117c-13-21-12-21 5-5 10 10 16 20 13 22-3 3-11-5-18-17z"/><path d="m2060 120c0-5 5-10 10-10 6 0 10 5 10 10 0 6-4 10-10 10-5 0-10-4-10-10z"/><path d="m6701 116c-12-15-3-82 10-69 4 4 11 25 14 46 7 38-3 49-24 23z"/><path d="m6193 102c-37-18-38-21-20-47 18-23 63-14 72 16 12 35-14 50-52 31z"/><path d="m2112 81c12-20 58-35 58-20 0 5-7 9-15 9s-15 5-15 11c0 5-4 7-10 4-5-3-10-1-10 4 0 6-5 11-10 11-6 0-5-8 2-19z"/><path d="m3730 89c0-5 5-7 10-4 6 3 10 8 10 11 0 2-4 4-10 4-5 0-10-5-10-11z"/><path d="m3760 79c0-11 4-18 10-14 5 3 7 12 3 20-7 21-13 19-13-6z"/><path d="m4375 69c-25-12-48-46-40-59 19-31 95 6 95 46 0 26-19 31-55 13z"/><path d="m4516 59c-14-11-26-29-26-40 0-17 8-19 90-19 75 0 88 2 84 15-7 17-30 20-39 5-7-12-36-14-33-2 1 4-2 19-6 35-10 33-33 35-70 6z"/><path d="m2010 49c0-11 5-17 10-14 6 3 10 13 10 21s-4 14-10 14c-5 0-10-9-10-21z"/><path d="m2085 60c3-5 8-10 11-10 2 0 4 5 4 10 0 6-5 10-11 10-5 0-7-4-4-10z"/><path d="m2180 61c0-12 39-21 45-11 3 4-2 11-11 14-22 8-34 7-34-3z"/><path d="m3684 29-29-30 63 3c61 3 79 13 45 25-10 3-25 12-34 19-13 12-20 10-45-17z"/><path d="m2050 40c0-5 5-10 10-10 6 0 10 5 10 10 0 6-4 10-10 10-5 0-10-4-10-10z"/><path d="m1857 29c7-7 15-10 18-7s-2 9-12 12c-14 6-15 5-6-5z"/><path d="m3621 24c0-11 3-14 6-6 3 7 2 16-1 19-3 4-6-2-5-13z"/><path d="m6683 23c-20-7-15-23 7-23 11 0 20 4 20 9 0 13-12 19-27 14z"/><path d="m6290 10c-11-7 3-10 45-10s56 3 45 10c-19 12-71 12-90 0z"/></g></svg>